<?xml version="1.0" encoding="utf-8"?>
<!-- Generator: Adobe Illustrator 16.0.0, SVG Export Plug-In . SVG Version: 6.00 Build 0)  -->
<!DOCTYPE svg PUBLIC "-//W3C//DTD SVG 1.1//EN" "http://www.w3.org/Graphics/SVG/1.1/DTD/svg11.dtd">
<svg version="1.1" id="Layer_1" xmlns="http://www.w3.org/2000/svg" xmlns:xlink="http://www.w3.org/1999/xlink" x="0px" y="0px"
	 width="50px" height="50px" viewBox="0 0 50 50" enable-background="new 0 0 50 50" xml:space="preserve">
<g>
	<path d="M33,13H17c-2.205,0-4,1.794-4,4v16c0,2.206,1.795,4,4,4h16c2.205,0,4-1.794,4-4V17C37,14.794,35.205,13,33,13z M35,33
		c0,1.103-0.896,2-2,2H17c-1.104,0-2-0.897-2-2V17c0-1.103,0.896-2,2-2h16c1.104,0,2,0.897,2,2V33z"/>
	<path d="M31.604,20h-8.207c-0.553,0-1,0.448-1,1s0.447,1,1,1h8.207c0.553,0,1-0.448,1-1S32.156,20,31.604,20z"/>
	<path d="M21.109,17.822l-1.378,1.649c-0.249-0.137-0.531-0.222-0.835-0.222c-0.379,0-0.728,0.124-1.015,0.33l-0.138-0.133
		c-0.199-0.191-0.516-0.185-0.707,0.013c-0.192,0.199-0.187,0.515,0.012,0.707l0.218,0.21c-0.075,0.194-0.12,0.403-0.12,0.624
		c0,0.965,0.785,1.75,1.75,1.75s1.75-0.785,1.75-1.75c0-0.295-0.08-0.569-0.21-0.813l1.44-1.723
		c0.177-0.212,0.148-0.527-0.063-0.705C21.604,17.583,21.287,17.611,21.109,17.822z M18.896,19.75c0.182,0,0.352,0.043,0.508,0.113
		l-0.549,0.657l-0.593-0.572C18.451,19.833,18.66,19.75,18.896,19.75z M20.146,21c0,0.689-0.561,1.25-1.25,1.25
		s-1.25-0.561-1.25-1.25c0-0.076,0.03-0.143,0.043-0.215l0.857,0.827c0.094,0.09,0.219,0.14,0.348,0.14c0.009,0,0.018,0,0.026,0
		c0.139-0.008,0.269-0.072,0.357-0.179l0.792-0.948C20.109,20.746,20.146,20.867,20.146,21z"/>
	<path d="M18.896,23.25c-0.965,0-1.75,0.785-1.75,1.75s0.785,1.75,1.75,1.75s1.75-0.785,1.75-1.75S19.861,23.25,18.896,23.25z
		 M18.896,26.25c-0.689,0-1.25-0.561-1.25-1.25s0.561-1.25,1.25-1.25s1.25,0.561,1.25,1.25S19.586,26.25,18.896,26.25z"/>
	<path d="M31.604,24h-8.207c-0.553,0-1,0.448-1,1s0.447,1,1,1h8.207c0.553,0,1-0.448,1-1S32.156,24,31.604,24z"/>
	<path d="M18.896,27.25c-0.965,0-1.75,0.785-1.75,1.75s0.785,1.75,1.75,1.75s1.75-0.785,1.75-1.75S19.861,27.25,18.896,27.25z
		 M18.896,30.25c-0.689,0-1.25-0.561-1.25-1.25s0.561-1.25,1.25-1.25s1.25,0.561,1.25,1.25S19.586,30.25,18.896,30.25z"/>
	<path d="M31.604,28h-8.207c-0.553,0-1,0.448-1,1s0.447,1,1,1h8.207c0.553,0,1-0.448,1-1S32.156,28,31.604,28z"/>
</g>
</svg>
